<svg xmlns="http://www.w3.org/2000/svg" viewBox="0 0 512 512">
  <defs>
    <linearGradient id="bg" x1="0" y1="0" x2="1" y2="1">
      <stop offset="0%" stop-color="#1a1520"/>
      <stop offset="100%" stop-color="#12101a"/>
    </linearGradient>
    <linearGradient id="amber" x1="0" y1="0" x2="1" y2="1">
      <stop offset="0%" stop-color="#f5a623"/>
      <stop offset="100%" stop-color="#e08a1e"/>
    </linearGradient>
  </defs>
  <rect width="512" height="512" rx="112" fill="url(#bg)"/>
  <!-- Film strip perforations left -->
  <rect x="68" y="120" width="24" height="24" rx="4" fill="#2a2535" opacity="0.6"/>
  <rect x="68" y="168" width="24" height="24" rx="4" fill="#2a2535" opacity="0.6"/>
  <rect x="68" y="216" width="24" height="24" rx="4" fill="#2a2535" opacity="0.6"/>
  <rect x="68" y="264" width="24" height="24" rx="4" fill="#2a2535" opacity="0.6"/>
  <rect x="68" y="312" width="24" height="24" rx="4" fill="#2a2535" opacity="0.6"/>
  <rect x="68" y="360" width="24" height="24" rx="4" fill="#2a2535" opacity="0.6"/>
  <!-- Film strip perforations right -->
  <rect x="420" y="120" width="24" height="24" rx="4" fill="#2a2535" opacity="0.6"/>
  <rect x="420" y="168" width="24" height="24" rx="4" fill="#2a2535" opacity="0.6"/>
  <rect x="420" y="216" width="24" height="24" rx="4" fill="#2a2535" opacity="0.6"/>
  <rect x="420" y="264" width="24" height="24" rx="4" fill="#2a2535" opacity="0.6"/>
  <rect x="420" y="312" width="24" height="24" rx="4" fill="#2a2535" opacity="0.6"/>
  <rect x="420" y="360" width="24" height="24" rx="4" fill="#2a2535" opacity="0.6"/>
  <!-- Main screen area -->
  <rect x="112" y="108" width="288" height="296" rx="16" fill="#1e1a28" stroke="#f5a623" stroke-width="3" opacity="0.9"/>
  <!-- Play button triangle -->
  <path d="M232 210 L232 302 L304 256 Z" fill="url(#amber)" opacity="0.95"/>
  <!-- Bookmark/watchlist ribbon -->
  <path d="M340 108 L340 188 L362 170 L384 188 L384 108" fill="#f5a623" opacity="0.85"/>
  <!-- Bottom text area glow -->
  <rect x="112" y="380" width="288" height="8" rx="4" fill="#f5a623" opacity="0.3"/>
</svg>
